<svg width="512" height="512" viewBox="0 0 512 512" fill="none" xmlns="http://www.w3.org/2000/svg">
  <defs>
    <linearGradient id="bg" x1="72" y1="50" x2="448" y2="476" gradientUnits="userSpaceOnUse">
      <stop stop-color="#122B35"/>
      <stop offset="0.52" stop-color="#071018"/>
      <stop offset="1" stop-color="#211A30"/>
    </linearGradient>
    <linearGradient id="gold" x1="119" y1="86" x2="387" y2="426" gradientUnits="userSpaceOnUse">
      <stop stop-color="#FFF1A8"/>
      <stop offset="0.5" stop-color="#FFD75A"/>
      <stop offset="1" stop-color="#FF8B3D"/>
    </linearGradient>
    <filter id="glow" x="-20%" y="-20%" width="140%" height="140%" color-interpolation-filters="sRGB">
      <feDropShadow dx="0" dy="0" stdDeviation="14" flood-color="#7DFCFF" flood-opacity="0.42"/>
      <feDropShadow dx="0" dy="10" stdDeviation="18" flood-color="#000000" flood-opacity="0.55"/>
    </filter>
  </defs>
  <rect x="28" y="28" width="456" height="456" rx="104" fill="url(#bg)"/>
  <rect x="47" y="47" width="418" height="418" rx="86" stroke="#7DFCFF" stroke-opacity="0.34" stroke-width="14"/>
  <path d="M394 87L412 130L457 148L412 166L394 209L376 166L331 148L376 130L394 87Z" fill="#7DFCFF" opacity="0.9"/>
  <path d="M111 370L126 405L163 420L126 435L111 470L96 435L59 420L96 405L111 370Z" fill="#FFD75A" opacity="0.95"/>
  <text x="256" y="354" text-anchor="middle" font-family="Arial Black, Impact, system-ui, sans-serif" font-size="276" font-weight="900" letter-spacing="-18" fill="url(#gold)" stroke="#FFF7D2" stroke-width="7" paint-order="stroke fill" filter="url(#glow)">B</text>
  <path d="M171 140H339" stroke="#7DFCFF" stroke-width="18" stroke-linecap="round" opacity="0.8"/>
  <path d="M171 382H339" stroke="#FF8B3D" stroke-width="14" stroke-linecap="round" opacity="0.78"/>
</svg>
